<?xml version="1.0" encoding="utf-8"?>
<!-- Generator: Adobe Illustrator 23.0.1, SVG Export Plug-In . SVG Version: 6.00 Build 0)  -->
<svg version="1.1" xmlns="http://www.w3.org/2000/svg" xmlns:xlink="http://www.w3.org/1999/xlink" x="0px" y="0px"
	 viewBox="0 0 3274.6 1296.9" style="enable-background:new 0 0 3274.6 1296.9;" xml:space="preserve">
<style type="text/css">
	.st0{enable-background:new    ;}
	.st1{clip-path:url(#SVGID_2_);}
	.st2{fill:#EF7C10;}
	.st3{font-family:'WorkSans-SemiBold';}
	.st4{font-size:39px;}
	.st5{clip-path:url(#SVGID_4_);}
	.st6{clip-path:url(#SVGID_6_);}
	.st7{clip-path:url(#SVGID_8_);}
	.st8{clip-path:url(#SVGID_10_);}
	.st9{letter-spacing:-1;}
	.st10{clip-path:url(#SVGID_12_);}
	.st11{clip-path:url(#SVGID_14_);}
	.st12{clip-path:url(#SVGID_16_);}
	.st13{fill:#FFFFFF;}
	.st14{font-family:'WorkSans-Regular';}
	.st15{font-size:35px;}
</style>
<g id="Layer_2">
</g>
<g id="Layer_1">
	<g class="st0">
		<g>
			<defs>
				<rect id="SVGID_1_" x="181.8" y="286.5" width="225.6" height="40.8"/>
			</defs>
			<clipPath id="SVGID_2_">
				<use xlink:href="#SVGID_1_"  style="overflow:visible;"/>
			</clipPath>
			<g class="st1">
				<text transform="matrix(1 0 0 1 181.8335 315.5399)"><tspan x="0" y="0" class="st2 st3 st4">S</tspan><tspan x="25" y="0" class="st2 st3 st4">iglo I</tspan><tspan x="117.9" y="0" class="st2 st3 st4">X</tspan><tspan x="142.6" y="0" class="st2 st3 st4"> </tspan><tspan x="154" y="0" class="st2 st3 st4">y</tspan><tspan x="174.8" y="0" class="st2 st3 st4"> </tspan><tspan x="186.5" y="0" class="st2 st3 st4">XI</tspan></text>
			</g>
		</g>
	</g>
	<g class="st0">
		<g>
			<defs>
				<rect id="SVGID_3_" x="546.6" y="764" width="215.6" height="40.8"/>
			</defs>
			<clipPath id="SVGID_4_">
				<use xlink:href="#SVGID_3_"  style="overflow:visible;"/>
			</clipPath>
			<g class="st5">
				<text transform="matrix(1 0 0 1 546.6113 793.0946)"><tspan x="0" y="0" class="st2 st3 st4">1540 ·</tspan><tspan x="110.8" y="0" class="st2 st3 st4"> </tspan><tspan x="122.3" y="0" class="st2 st3 st4">1598</tspan></text>
			</g>
		</g>
	</g>
	<g class="st0">
		<g>
			<defs>
				<rect id="SVGID_5_" x="900.4" y="286.5" width="218.5" height="40.8"/>
			</defs>
			<clipPath id="SVGID_6_">
				<use xlink:href="#SVGID_5_"  style="overflow:visible;"/>
			</clipPath>
			<g class="st6">
				<text transform="matrix(1 0 0 1 900.3726 315.538)"><tspan x="0" y="0" class="st2 st3 st4">1589 ·</tspan><tspan x="109.7" y="0" class="st2 st3 st4"> </tspan><tspan x="121.2" y="0" class="st2 st3 st4">1810 </tspan></text>
			</g>
		</g>
	</g>
	<g class="st0">
		<g>
			<defs>
				<rect id="SVGID_7_" x="1304.6" y="764.8" width="203.4" height="40.8"/>
			</defs>
			<clipPath id="SVGID_8_">
				<use xlink:href="#SVGID_7_"  style="overflow:visible;"/>
			</clipPath>
			<g class="st7">
				<text transform="matrix(1 0 0 1 1304.6074 793.8749)"><tspan x="0" y="0" class="st2 st3 st4">1810 ·</tspan><tspan x="104.4" y="0" class="st2 st3 st4"> </tspan><tspan x="115.9" y="0" class="st2 st3 st4">1</tspan><tspan x="132.6" y="0" class="st2 st3 st4">8</tspan><tspan x="156.5" y="0" class="st2 st3 st4">30  </tspan></text>
			</g>
		</g>
	</g>
	<g class="st0">
		<g>
			<defs>
				<rect id="SVGID_9_" x="1604.4" y="286.8" width="207.1" height="40.8"/>
			</defs>
			<clipPath id="SVGID_10_">
				<use xlink:href="#SVGID_9_"  style="overflow:visible;"/>
			</clipPath>
			<g class="st8">
				<text transform="matrix(1 0 0 1 1604.3701 315.8866)"><tspan x="0" y="0" class="st2 st3 st4">1</tspan><tspan x="16.7" y="0" class="st2 st3 st4 st9">8</tspan><tspan x="39.6" y="0" class="st2 st3 st4">79 ·</tspan><tspan x="108.8" y="0" class="st2 st3 st4"> </tspan><tspan x="120.4" y="0" class="st2 st3 st4">18</tspan><tspan x="161.3" y="0" class="st2 st3 st4">8</tspan><tspan x="185.2" y="0" class="st2 st3 st4">3  </tspan></text>
			</g>
		</g>
	</g>
	<g class="st0">
		<g>
			<defs>
				<rect id="SVGID_11_" x="2039.1" y="764" width="206.6" height="40.8"/>
			</defs>
			<clipPath id="SVGID_12_">
				<use xlink:href="#SVGID_11_"  style="overflow:visible;"/>
			</clipPath>
			<g class="st10">
				<text transform="matrix(1 0 0 1 2039.0684 793.0946)"><tspan x="0" y="0" class="st2 st3 st4">1915 ·</tspan><tspan x="102.1" y="0" class="st2 st3 st4"> </tspan><tspan x="113.6" y="0" class="st2 st3 st4">1982</tspan></text>
			</g>
		</g>
	</g>
	<g class="st0">
		<g>
			<defs>
				<rect id="SVGID_13_" x="2364.3" y="286.5" width="217" height="40.8"/>
			</defs>
			<clipPath id="SVGID_14_">
				<use xlink:href="#SVGID_13_"  style="overflow:visible;"/>
			</clipPath>
			<g class="st11">
				<text transform="matrix(1 0 0 1 2364.332 315.5399)"><tspan x="0" y="0" class="st2 st3 st4">198</tspan><tspan x="65.1" y="0" class="st2 st3 st4">2 </tspan><tspan x="99.3" y="0" class="st2 st3 st4">·</tspan><tspan x="109.3" y="0" class="st2 st3 st4"> </tspan><tspan x="120.8" y="0" class="st2 st3 st4">1990  </tspan></text>
			</g>
		</g>
	</g>
	<g class="st0">
		<g>
			<defs>
				<rect id="SVGID_15_" x="2701.6" y="764.8" width="309.8" height="40.8"/>
			</defs>
			<clipPath id="SVGID_16_">
				<use xlink:href="#SVGID_15_"  style="overflow:visible;"/>
			</clipPath>
			<g class="st12">
				<text transform="matrix(1 0 0 1 2701.5996 793.8759)"><tspan x="0" y="0" class="st2 st3 st4">En </tspan><tspan x="60.8" y="0" class="st2 st3 st4">l</tspan><tspan x="73.4" y="0" class="st2 st3 st4">a</tspan><tspan x="95.2" y="0" class="st2 st3 st4"> </tspan><tspan x="107.2" y="0" class="st2 st3 st4">a</tspan><tspan x="129.5" y="0" class="st2 st3 st4">ctualid</tspan><tspan x="262.9" y="0" class="st2 st3 st4">a</tspan><tspan x="285.3" y="0" class="st2 st3 st4">d   </tspan></text>
			</g>
		</g>
	</g>
	<text transform="matrix(1 0 0 1 182.6992 362.0721)"><tspan x="0" y="0" class="st13 st14 st15">L</tspan><tspan x="20.4" y="0" class="st13 st14 st15">os</tspan><tspan x="60.2" y="0" class="st13 st14 st15 st9"> </tspan><tspan x="70.7" y="0" class="st13 st14 st15 st9">A</tspan><tspan x="92.6" y="0" class="st13 st14 st15">tacameños,</tspan><tspan x="291.1" y="0" class="st13 st14 st15"> </tspan><tspan x="302.4" y="0" class="st13 st14 st15">fue</tspan><tspan x="358.1" y="0" class="st13 st14 st15">r</tspan><tspan x="371.9" y="0" class="st13 st14 st15">on los </tspan></text>
	<text transform="matrix(1 0 0 1 182.6992 398.2723)"><tspan x="0" y="0" class="st13 st14 st15">prime</tspan><tspan x="99.3" y="0" class="st13 st14 st15">r</tspan><tspan x="113.1" y="0" class="st13 st14 st15">os pueblos originarios </tspan></text>
	<text transform="matrix(1 0 0 1 182.6992 434.472)"><tspan x="0" y="0" class="st13 st14 st15">en </tspan><tspan x="53.9" y="0" class="st13 st14 st15">e</tspan><tspan x="73.6" y="0" class="st13 st14 st15">xt</tspan><tspan x="106.9" y="0" class="st13 st14 st15">r</tspan><tspan x="120.7" y="0" class="st13 st14 st15">ae</tspan><tspan x="160.9" y="0" class="st13 st14 st15">r</tspan><tspan x="174.4" y="0" class="st13 st14 st15"> mine</tspan><tspan x="271" y="0" class="st13 st14 st15">r</tspan><tspan x="284.8" y="0" class="st13 st14 st15">ales en Chile.</tspan></text>
	<text transform="matrix(1 0 0 1 901.6772 363.1381)"><tspan x="0" y="0" class="st13 st14 st15">Chile dejó de depende</tspan><tspan x="386" y="0" class="st13 st14 st15">r</tspan><tspan x="399.5" y="0" class="st13 st14 st15"> de l</tspan><tspan x="476.5" y="0" class="st13 st14 st15">a</tspan><tspan x="495.5" y="0" class="st13 st14 st15"> mi</tspan></text>
	<text transform="matrix(1 0 0 1 1308.8896 363.1381)" class="st13 st14 st15">-</text>
	<text transform="matrix(1 0 0 1 901.6772 399.3383)"><tspan x="0" y="0" class="st13 st14 st15">nerí</tspan><tspan x="65.6" y="0" class="st13 st14 st15">a</tspan><tspan x="84.6" y="0" class="st13 st14 st15"> económicame</tspan><tspan x="336.8" y="0" class="st13 st14 st15">n</tspan><tspan x="358.2" y="0" class="st13 st14 st15">te, po</tspan><tspan x="457.8" y="0" class="st13 st14 st15">r</tspan><tspan x="471.3" y="0" class="st13 st14 st15"> lo </tspan></text>
	<text transform="matrix(1 0 0 1 901.6772 435.538)"><tspan x="0" y="0" class="st13 st14 st15">que los l</tspan><tspan x="149.1" y="0" class="st13 st14 st15">a</tspan><tspan x="168.3" y="0" class="st13 st14 st15">v</tspan><tspan x="186.1" y="0" class="st13 st14 st15">ande</tspan><tspan x="270" y="0" class="st13 st14 st15">r</tspan><tspan x="283.7" y="0" class="st13 st14 st15">os de o</tspan><tspan x="411" y="0" class="st13 st14 st15">r</tspan><tspan x="424.7" y="0" class="st13 st14 st15">o se </tspan></text>
	<text transform="matrix(1 0 0 1 901.6772 471.7382)"><tspan x="0" y="0" class="st13 st14 st15">t</tspan><tspan x="14.7" y="0" class="st13 st14 st15">r</tspan><tspan x="28.5" y="0" class="st13 st14 st15">ans</tspan><tspan x="88.4" y="0" class="st13 st14 st15">f</tspan><tspan x="101.7" y="0" class="st13 st14 st15">orma</tspan><tspan x="190.4" y="0" class="st13 st14 st15">r</tspan><tspan x="204.2" y="0" class="st13 st14 st15">on en p</tspan><tspan x="335" y="0" class="st13 st14 st15">r</tspan><tspan x="348.8" y="0" class="st13 st14 st15">oducción de </tspan></text>
	<text transform="matrix(1 0 0 1 901.6772 507.9384)"><tspan x="0" y="0" class="st13 st14 st15">ganaderí</tspan><tspan x="146.5" y="0" class="st13 st14 st15">a</tspan><tspan x="165.5" y="0" class="st13 st14 st15"> </tspan><tspan x="176.5" y="0" class="st13 st14 st15">y</tspan><tspan x="194.4" y="0" class="st13 st14 st15"> agricu</tspan><tspan x="310.4" y="0" class="st13 st14 st15">l</tspan><tspan x="320.4" y="0" class="st13 st14 st15">tu</tspan><tspan x="356.7" y="0" class="st13 st14 st15">r</tspan><tspan x="370.6" y="0" class="st13 st14 st15">a.  </tspan></text>
	<text transform="matrix(0.9587 0 0 1 549.7153 838.0507)"><tspan x="0" y="0" class="st13 st14 st15">L</tspan><tspan x="20.4" y="0" class="st13 st14 st15">os españoles a</tspan><tspan x="276.9" y="0" class="st13 st14 st15 st9">l</tspan><tspan x="286.4" y="0" class="st13 st14 st15"> llega</tspan><tspan x="379.1" y="0" class="st13 st14 st15">r</tspan><tspan x="392.7" y="0" class="st13 st14 st15"> busca</tspan></text>
	<text transform="matrix(0.9587 0 0 1 1038.1339 837.455)" class="st13 st14 st15">-</text>
	<text transform="matrix(0.9587 0 0 1 549.7153 875.5946)"><tspan x="0" y="0" class="st13 st14 st15">ban o</tspan><tspan x="96.7" y="0" class="st13 st14 st15">r</tspan><tspan x="110.5" y="0" class="st13 st14 st15">o</tspan><tspan x="131.1" y="0" class="st13 st14 st15">, pe</tspan><tspan x="194.7" y="0" class="st13 st14 st15">r</tspan><tspan x="208.5" y="0" class="st13 st14 st15">o no enco</tspan><tspan x="379.6" y="0" class="st13 st14 st15">n</tspan><tspan x="401.1" y="0" class="st13 st14 st15">t</tspan><tspan x="415.7" y="0" class="st13 st14 st15">r</tspan><tspan x="429.5" y="0" class="st13 st14 st15">aban </tspan></text>
	<text transform="matrix(0.9587 0 0 1 549.7153 913.1395)"><tspan x="0" y="0" class="st13 st14 st15">las ca</tspan><tspan x="100.4" y="0" class="st13 st14 st15">n</tspan><tspan x="121.9" y="0" class="st13 st14 st15">tidades que espe</tspan><tspan x="417.7" y="0" class="st13 st14 st15">r</tspan><tspan x="431.5" y="0" class="st13 st14 st15">aban </tspan></text>
	<text transform="matrix(0.9587 0 0 1 549.7153 950.6835)"><tspan x="0" y="0" class="st13 st14 st15">po</tspan><tspan x="43.3" y="0" class="st13 st14 st15">r</tspan><tspan x="56.8" y="0" class="st13 st14 st15"> lo que comenza</tspan><tspan x="343.6" y="0" class="st13 st14 st15">r</tspan><tspan x="357.3" y="0" class="st13 st14 st15">on </tspan><tspan x="412.2" y="0" class="st13 st14 st15">a</tspan><tspan x="431.2" y="0" class="st13 st14 st15"> </tspan><tspan x="443.2" y="0" class="st13 st14 st15">e</tspan><tspan x="462.9" y="0" class="st13 st14 st15">x</tspan></text>
	<text transform="matrix(0.9587 0 0 1 905.8643 950.6835)" class="st13 st14 st15">-</text>
	<text transform="matrix(0.9587 0 0 1 549.7153 988.2274)"><tspan x="0" y="0" class="st13 st14 st15">t</tspan><tspan x="14.7" y="0" class="st13 st14 st15">r</tspan><tspan x="28.5" y="0" class="st13 st14 st15">ae</tspan><tspan x="68.6" y="0" class="st13 st14 st15">r</tspan><tspan x="82.1" y="0" class="st13 st14 st15"> </tspan><tspan x="94.1" y="0" class="st13 st14 st15">o</tspan><tspan x="115.1" y="0" class="st13 st14 st15">t</tspan><tspan x="129.7" y="0" class="st13 st14 st15">r</tspan><tspan x="143.5" y="0" class="st13 st14 st15">os mine</tspan><tspan x="279.8" y="0" class="st13 st14 st15">r</tspan><tspan x="293.6" y="0" class="st13 st14 st15">ales.</tspan></text>
	<text transform="matrix(0.9587 0 0 1 1303.1172 837.8075)"><tspan x="0" y="0" class="st13 st14 st15">Con l</tspan><tspan x="89.6" y="0" class="st13 st14 st15">a</tspan><tspan x="108.6" y="0" class="st13 st14 st15"> </tspan><tspan x="120.6" y="0" class="st13 st14 st15">I</tspan><tspan x="130.8" y="0" class="st13 st14 st15">ndependenci</tspan><tspan x="352" y="0" class="st13 st14 st15">a</tspan><tspan x="371" y="0" class="st13 st14 st15"> de Chile</tspan><tspan x="523.3" y="0" class="st13 st14 st15">,</tspan><tspan x="531.9" y="0" class="st13 st14 st15">l</tspan><tspan x="542.6" y="0" class="st13 st14 st15">a</tspan><tspan x="561.6" y="0" class="st13 st14 st15"> </tspan></text>
	<text transform="matrix(0.9587 0 0 1 1303.1172 875.3514)"><tspan x="0" y="0" class="st13 st14 st15">minerí</tspan><tspan x="108.3" y="0" class="st13 st14 st15">a</tspan><tspan x="127.3" y="0" class="st13 st14 st15"> </tspan><tspan x="138.5" y="0" class="st13 st14 st15">tuvo un aume</tspan><tspan x="376.7" y="0" class="st13 st14 st15">n</tspan><tspan x="398.2" y="0" class="st13 st14 st15">to en su </tspan></text>
	<text transform="matrix(0.9587 0 0 1 1303.1172 912.8954)"><tspan x="0" y="0" class="st13 st14 st15">auge</tspan><tspan x="81" y="0" class="st13 st14 st15"> y</tspan><tspan x="110" y="0" class="st13 st14 st15"> se comenza</tspan><tspan x="327.5" y="0" class="st13 st14 st15">r</tspan><tspan x="341.3" y="0" class="st13 st14 st15">on </tspan><tspan x="396.2" y="0" class="st13 st14 st15">a</tspan><tspan x="415.2" y="0" class="st13 st14 st15"> hace</tspan><tspan x="508.7" y="0" class="st13 st14 st15">r</tspan><tspan x="522.2" y="0" class="st13 st14 st15"> </tspan></text>
	<text transform="matrix(0.9587 0 0 1 1303.1172 950.4384)"><tspan x="0" y="0" class="st13 st14 st15">e</tspan><tspan x="19.7" y="0" class="st13 st14 st15">xpo</tspan><tspan x="81.7" y="0" class="st13 st14 st15">r</tspan><tspan x="95" y="0" class="st13 st14 st15">taciones.</tspan></text>
	<text transform="matrix(1 0 0 1 1604.3789 363.1122)"><tspan x="0" y="0" class="st13 st14 st15">Desie</tspan><tspan x="93.7" y="0" class="st13 st14 st15 st9">r</tspan><tspan x="106.9" y="0" class="st13 st14 st15">to de</tspan><tspan x="197.2" y="0" class="st13 st14 st15 st9"> </tspan><tspan x="207.8" y="0" class="st13 st14 st15 st9">A</tspan><tspan x="229.7" y="0" class="st13 st14 st15">tacama, </tspan><tspan x="378.1" y="0" class="st13 st14 st15">e</tspan><tspan x="397.8" y="0" class="st13 st14 st15">xtensión más </tspan></text>
	<text transform="matrix(1 0 0 1 1604.3789 399.3124)"><tspan x="0" y="0" class="st13 st14 st15">g</tspan><tspan x="19.2" y="0" class="st13 st14 st15">r</tspan><tspan x="33" y="0" class="st13 st14 st15">ande ag</tspan><tspan x="167.9" y="0" class="st13 st14 st15">r</tspan><tspan x="181.6" y="0" class="st13 st14 st15">egad</tspan><tspan x="263" y="0" class="st13 st14 st15">a</tspan><tspan x="282.1" y="0" class="st13 st14 st15"> </tspan><tspan x="294" y="0" class="st13 st14 st15">a</tspan><tspan x="313" y="0" class="st13 st14 st15"> Chile después de l</tspan><tspan x="643.2" y="0" class="st13 st14 st15">a</tspan><tspan x="662.3" y="0" class="st13 st14 st15"> </tspan></text>
	<text transform="matrix(1 0 0 1 1604.3789 435.5126)"><tspan x="0" y="0" class="st13 st14 st15">Guer</tspan><tspan x="81.6" y="0" class="st13 st14 st15">r</tspan><tspan x="95.4" y="0" class="st13 st14 st15">a</tspan><tspan x="114.5" y="0" class="st13 st14 st15"> de</tspan><tspan x="168.8" y="0" class="st13 st14 st15 st9">l</tspan><tspan x="178.3" y="0" class="st13 st14 st15"> Pacíﬁc</tspan><tspan x="303.2" y="0" class="st13 st14 st15">o</tspan><tspan x="323.8" y="0" class="st13 st14 st15">.</tspan><tspan x="333.2" y="0" class="st13 st14 st15 st9"> </tspan><tspan x="343.7" y="0" class="st13 st14 st15">A</tspan><tspan x="366.5" y="0" class="st13 st14 st15">ctualme</tspan><tspan x="506.8" y="0" class="st13 st14 st15">n</tspan><tspan x="528.3" y="0" class="st13 st14 st15">te se </tspan></text>
	<text transform="matrix(1 0 0 1 1604.3789 471.7123)"><tspan x="0" y="0" class="st13 st14 st15">conce</tspan><tspan x="102.8" y="0" class="st13 st14 st15">n</tspan><tspan x="124.2" y="0" class="st13 st14 st15">t</tspan><tspan x="138.9" y="0" class="st13 st14 st15">r</tspan><tspan x="152.7" y="0" class="st13 st14 st15">a</tspan><tspan x="171.7" y="0" class="st13 st14 st15"> g</tspan><tspan x="202.9" y="0" class="st13 st14 st15">r</tspan><tspan x="216.7" y="0" class="st13 st14 st15">an pa</tspan><tspan x="312" y="0" class="st13 st14 st15 st9">r</tspan><tspan x="325.2" y="0" class="st13 st14 st15">te de</tspan><tspan x="414.6" y="0" class="st13 st14 st15 st9">l</tspan><tspan x="424.1" y="0" class="st13 st14 st15"> desar</tspan><tspan x="530.9" y="0" class="st13 st14 st15">r</tspan><tspan x="544.7" y="0" class="st13 st14 st15">ollo </tspan></text>
	<text transform="matrix(1 0 0 1 1604.3789 507.9125)"><tspan x="0" y="0" class="st13 st14 st15">mine</tspan><tspan x="84.7" y="0" class="st13 st14 st15">r</tspan><tspan x="98.4" y="0" class="st13 st14 st15">o en Chile. </tspan></text>
	<text transform="matrix(0.9587 0 0 1 2041.2832 837.9159)"><tspan x="0" y="0" class="st13 st14 st15">En Chile se comienz</tspan><tspan x="349" y="0" class="st13 st14 st15">a</tspan><tspan x="368" y="0" class="st13 st14 st15"> </tspan><tspan x="380" y="0" class="st13 st14 st15">a</tspan><tspan x="399" y="0" class="st13 st14 st15"> </tspan><tspan x="410.9" y="0" class="st13 st14 st15">e</tspan><tspan x="430.6" y="0" class="st13 st14 st15">xt</tspan><tspan x="464" y="0" class="st13 st14 st15">r</tspan><tspan x="477.8" y="0" class="st13 st14 st15">ae</tspan><tspan x="517.9" y="0" class="st13 st14 st15">r</tspan><tspan x="531.4" y="0" class="st13 st14 st15"> e</tspan><tspan x="563.7" y="0" class="st13 st14 st15 st9">l</tspan><tspan x="573.2" y="0" class="st13 st14 st15"> </tspan></text>
	<text transform="matrix(0.9587 0 0 1 2041.2832 875.4598)"><tspan x="0" y="0" class="st13 st14 st15">cob</tspan><tspan x="63.1" y="0" class="st13 st14 st15">r</tspan><tspan x="76.8" y="0" class="st13 st14 st15">e, debido </tspan><tspan x="247.4" y="0" class="st13 st14 st15">a</tspan><tspan x="266.4" y="0" class="st13 st14 st15"> l</tspan><tspan x="289" y="0" class="st13 st14 st15">a</tspan><tspan x="308" y="0" class="st13 st14 st15"> baj</tspan><tspan x="371.1" y="0" class="st13 st14 st15">a</tspan><tspan x="390.2" y="0" class="st13 st14 st15"> de l</tspan><tspan x="467.1" y="0" class="st13 st14 st15">a</tspan><tspan x="486.1" y="0" class="st13 st14 st15"> </tspan><tspan x="498.1" y="0" class="st13 st14 st15">e</tspan><tspan x="517.7" y="0" class="st13 st14 st15">x</tspan></text>
	<text transform="matrix(0.9587 0 0 1 2438.3271 875.4598)" class="st13 st14 st15">-</text>
	<text transform="matrix(0.9587 0 0 1 2041.2832 913.0038)"><tspan x="0" y="0" class="st13 st14 st15">t</tspan><tspan x="14.7" y="0" class="st13 st14 st15">r</tspan><tspan x="28.5" y="0" class="st13 st14 st15">acción de</tspan><tspan x="194.3" y="0" class="st13 st14 st15 st9">l</tspan><tspan x="203.8" y="0" class="st13 st14 st15"> salit</tspan><tspan x="288.7" y="0" class="st13 st14 st15">r</tspan><tspan x="302.5" y="0" class="st13 st14 st15">e. </tspan><tspan x="344" y="0" class="st13 st14 st15">P</tspan><tspan x="365.1" y="0" class="st13 st14 st15">osterio</tspan><tspan x="484.7" y="0" class="st13 st14 st15">r</tspan><tspan x="498.2" y="0" class="st13 st14 st15"> </tspan><tspan x="510.1" y="0" class="st13 st14 st15">a</tspan><tspan x="529.2" y="0" class="st13 st14 st15"> </tspan></text>
	<text transform="matrix(0.9587 0 0 1 2041.2832 950.5477)"><tspan x="0" y="0" class="st13 st14 st15">esto e</tspan><tspan x="107" y="0" class="st13 st14 st15 st9">l</tspan><tspan x="116.5" y="0" class="st13 st14 st15"> cob</tspan><tspan x="191.5" y="0" class="st13 st14 st15">r</tspan><tspan x="205.3" y="0" class="st13 st14 st15">e </tspan><tspan x="237.5" y="0" class="st13 st14 st15">a</tspan><tspan x="256.5" y="0" class="st13 st14 st15"> Pinoch</tspan><tspan x="383.5" y="0" class="st13 st14 st15">e</tspan><tspan x="403.3" y="0" class="st13 st14 st15">t</tspan><tspan x="418" y="0" class="st13 st14 st15"> </tspan><tspan x="429.2" y="0" class="st13 st14 st15">t</tspan><tspan x="443.9" y="0" class="st13 st14 st15">r</tspan><tspan x="457.7" y="0" class="st13 st14 st15">aspas</tspan><tspan x="556.3" y="0" class="st13 st14 st15">a</tspan><tspan x="575.3" y="0" class="st13 st14 st15"> </tspan></text>
	<text transform="matrix(0.9587 0 0 1 2041.2832 988.0917)"><tspan x="0" y="0" class="st13 st14 st15">e</tspan><tspan x="20.3" y="0" class="st13 st14 st15 st9">l</tspan><tspan x="29.8" y="0" class="st13 st14 st15"> co</tspan><tspan x="82.8" y="0" class="st13 st14 st15">n</tspan><tspan x="104.2" y="0" class="st13 st14 st15">t</tspan><tspan x="118.9" y="0" class="st13 st14 st15">r</tspan><tspan x="132.6" y="0" class="st13 st14 st15">o</tspan><tspan x="153.9" y="0" class="st13 st14 st15 st9">l</tspan><tspan x="163.4" y="0" class="st13 st14 st15"> de l</tspan><tspan x="240.4" y="0" class="st13 st14 st15">a</tspan><tspan x="259.4" y="0" class="st13 st14 st15"> minerí</tspan><tspan x="379.6" y="0" class="st13 st14 st15">a</tspan><tspan x="398.6" y="0" class="st13 st14 st15"> </tspan><tspan x="410.6" y="0" class="st13 st14 st15">a</tspan><tspan x="429.6" y="0" class="st13 st14 st15"> su</tspan><tspan x="481.6" y="0" class="st13 st14 st15"> </tspan><tspan x="492.7" y="0" class="st13 st14 st15">yerno </tspan></text>
	<text transform="matrix(0.9587 0 0 1 2041.2832 1025.6356)"><tspan x="0" y="0" class="st13 st14 st15">P</tspan><tspan x="21.1" y="0" class="st13 st14 st15">once </tspan><tspan x="116" y="0" class="st13 st14 st15">L</tspan><tspan x="136.5" y="0" class="st13 st14 st15">e</tspan><tspan x="156.8" y="0" class="st13 st14 st15">r</tspan><tspan x="170.6" y="0" class="st13 st14 st15">ou</tspan></text>
	<text transform="matrix(1 0 0 1 2363.6572 357.9125)"><tspan x="0" y="0" class="st13 st14 st15">En Chile s comen</tspan><tspan x="300.6" y="0" class="st13 st14 st15">z</tspan><tspan x="319.1" y="0" class="st13 st14 st15">ó </tspan><tspan x="352.3" y="0" class="st13 st14 st15">a</tspan><tspan x="371.3" y="0" class="st13 st14 st15"> establece</tspan><tspan x="549.7" y="0" class="st13 st14 st15">r</tspan><tspan x="563.2" y="0" class="st13 st14 st15"> </tspan><tspan x="575.1" y="0" class="st13 st14 st15">a</tspan><tspan x="594.2" y="0" class="st13 st14 st15"> </tspan></text>
	<text transform="matrix(1 0 0 1 2363.6572 394.1122)"><tspan x="0" y="0" class="st13 st14 st15">minerí</tspan><tspan x="108.3" y="0" class="st13 st14 st15">a</tspan><tspan x="127.3" y="0" class="st13 st14 st15"> en Chile, espandiendose </tspan></text>
	<text transform="matrix(1 0 0 1 2363.6572 430.3124)"><tspan x="0" y="0" class="st13 st14 st15">su come</tspan><tspan x="146.8" y="0" class="st13 st14 st15">r</tspan><tspan x="160.5" y="0" class="st13 st14 st15">cio</tspan><tspan x="210.8" y="0" class="st13 st14 st15"> </tspan><tspan x="221.9" y="0" class="st13 st14 st15">y</tspan><tspan x="239.8" y="0" class="st13 st14 st15"> </tspan><tspan x="251.7" y="0" class="st13 st14 st15">e</tspan><tspan x="271.4" y="0" class="st13 st14 st15">xt</tspan><tspan x="304.7" y="0" class="st13 st14 st15">r</tspan><tspan x="318.5" y="0" class="st13 st14 st15">acción.</tspan></text>
	<text transform="matrix(0.9587 0 0 1 2698.8232 840.0048)"><tspan x="0" y="0" class="st13 st14 st15">S</tspan><tspan x="22.3" y="0" class="st13 st14 st15">i bien se sigue p</tspan><tspan x="302.5" y="0" class="st13 st14 st15">r</tspan><tspan x="316.2" y="0" class="st13 st14 st15">oduciend</tspan><tspan x="474.3" y="0" class="st13 st14 st15">o</tspan><tspan x="494.9" y="0" class="st13 st14 st15">, l</tspan><tspan x="526.9" y="0" class="st13 st14 st15">a</tspan><tspan x="545.9" y="0" class="st13 st14 st15"> </tspan></text>
	<text transform="matrix(0.9587 0 0 1 2698.8232 877.5477)"><tspan x="0" y="0" class="st13 st14 st15">industri</tspan><tspan x="131.4" y="0" class="st13 st14 st15">a</tspan><tspan x="150.4" y="0" class="st13 st14 st15"> mine</tspan><tspan x="247" y="0" class="st13 st14 st15">r</tspan><tspan x="260.8" y="0" class="st13 st14 st15">a</tspan><tspan x="279.9" y="0" class="st13 st14 st15"> u</tspan><tspan x="313.5" y="0" class="st13 st14 st15">l</tspan><tspan x="323.5" y="0" class="st13 st14 st15">timame</tspan><tspan x="454.3" y="0" class="st13 st14 st15">n</tspan><tspan x="475.8" y="0" class="st13 st14 st15">te </tspan><tspan x="522.7" y="0" class="st13 st14 st15">a</tspan><tspan x="541.8" y="0" class="st13 st14 st15"> </tspan></text>
	<text transform="matrix(0.9587 0 0 1 2698.8232 915.0917)"><tspan x="0" y="0" class="st13 st14 st15">sufrido algunas alzas</tspan><tspan x="363.4" y="0" class="st13 st14 st15"> </tspan><tspan x="374.5" y="0" class="st13 st14 st15">y</tspan><tspan x="392.4" y="0" class="st13 st14 st15"> bajas lo </tspan></text>
	<text transform="matrix(0.9587 0 0 1 2698.8232 952.6356)"><tspan x="0" y="0" class="st13 st14 st15">que h</tspan><tspan x="97.7" y="0" class="st13 st14 st15">a</tspan><tspan x="116.7" y="0" class="st13 st14 st15"> hecho que se encue</tspan><tspan x="475.7" y="0" class="st13 st14 st15">n</tspan><tspan x="497.2" y="0" class="st13 st14 st15">t</tspan><tspan x="511.9" y="0" class="st13 st14 st15">r</tspan><tspan x="525.6" y="0" class="st13 st14 st15">e </tspan></text>
	<text transform="matrix(0.9587 0 0 1 2698.8232 990.1796)" class="st13 st14 st15">inestable.</text>
</g>
</svg>
