<svg id="Layer_1" data-name="Layer 1" xmlns="http://www.w3.org/2000/svg" viewBox="0 0 3200 973.6"><defs><style>.cls-1{opacity:0.5;}.cls-13,.cls-2,.cls-3,.cls-4{fill:#fff;}.cls-2{opacity:0.37;}.cls-12,.cls-13,.cls-2,.cls-25,.cls-3,.cls-5{isolation:isolate;}.cls-3{opacity:0.64;}.cls-25,.cls-5{font-size:37.74px;fill:#e67800;font-family:WorkSans-SemiBold, Work Sans;font-weight:600;}.cls-5{letter-spacing:0em;}.cls-6{letter-spacing:0em;}.cls-7{letter-spacing:-0.01em;}.cls-8{letter-spacing:-0.02em;}.cls-9{letter-spacing:-0.02em;}.cls-10{letter-spacing:-0.01em;}.cls-11{fill:none;}.cls-13{font-size:28.3px;font-family:WorkSans-Regular, Work Sans;}.cls-14{letter-spacing:-0.01em;}.cls-15{letter-spacing:-0.04em;}.cls-16{letter-spacing:-0.03em;}.cls-17{letter-spacing:-0.02em;}.cls-18{letter-spacing:-0.02em;}.cls-19{letter-spacing:-0.02em;}.cls-20{letter-spacing:0em;}.cls-21{letter-spacing:-0.02em;}.cls-22{letter-spacing:-0.01em;}.cls-23{letter-spacing:-0.02em;}.cls-24{letter-spacing:-0.01em;}.cls-26{letter-spacing:-0.01em;}.cls-27{letter-spacing:-0.03em;}.cls-28{letter-spacing:-0.02em;}.cls-29{letter-spacing:-0.02em;}.cls-30{letter-spacing:0em;}.cls-31{letter-spacing:-0.01em;}.cls-32{letter-spacing:0em;}.cls-33{letter-spacing:-0.01em;}.cls-34{letter-spacing:0em;}.cls-35{letter-spacing:-0.01em;}.cls-36{letter-spacing:-0.02em;}.cls-37{letter-spacing:-0.02em;}.cls-38{letter-spacing:-0.01em;}.cls-39{letter-spacing:-0.02em;}.cls-40{letter-spacing:-0.02em;}.cls-41{letter-spacing:0em;}.cls-42{letter-spacing:-0.02em;}.cls-43{letter-spacing:-0.03em;}.cls-44{letter-spacing:-0.02em;}.cls-45{letter-spacing:-0.03em;}.cls-46{letter-spacing:0em;}.cls-47{letter-spacing:-0.01em;}.cls-48{letter-spacing:0em;}.cls-49{letter-spacing:-0.01em;}.cls-50{letter-spacing:0em;}.cls-51{letter-spacing:0em;}.cls-52{letter-spacing:-0.02em;}</style></defs><title>lineadetiempo</title><g id="gráfica"><circle class="cls-2" cx="484" cy="516.82" r="23.7"/><circle class="cls-2" cx="854.5" cy="516.82" r="23.7"/><circle class="cls-2" cx="1204.8" cy="516.82" r="23.7"/><path class="cls-2" d="M1584,493.12a23.7,23.7,0,1,0,23.7,23.7A23.69,23.69,0,0,0,1584,493.12Zm-23.4,26.1v0Z"/><circle class="cls-2" cx="1960.1" cy="516.82" r="23.7"/><circle class="cls-2" cx="2297.9" cy="516.82" r="23.7"/><circle class="cls-3" cx="484" cy="516.82" r="9.4"/><circle class="cls-4" cx="854.5" cy="516.82" r="9.4"/><circle class="cls-4" cx="1204.8" cy="516.82" r="9.4"/><circle class="cls-4" cx="1584" cy="516.82" r="9.4"/><circle class="cls-4" cx="1960.1" cy="516.82" r="9.4"/><circle class="cls-4" cx="2297.9" cy="516.82" r="9.4"/><circle class="cls-2" cx="2650.6" cy="516.82" r="23.7"/><circle class="cls-4" cx="2650.6" cy="516.82" r="9.4"/><path class="cls-4" d="M830.8,514h-323l-.2,5.7H831.2a20.16,20.16,0,0,1-.5-2.8A25.32,25.32,0,0,1,830.8,514Z"/><path class="cls-4" d="M1181,514H877.8a18.78,18.78,0,0,1,.4,2.8,20.28,20.28,0,0,1-.2,2.8h303"/><path class="cls-4" d="M1560.6,514H1228.3v5.7h332.3V514Z"/><path class="cls-4" d="M1936.5,514H1607.8v5.7h328.6"/><path class="cls-4" d="M1983,514v5.7h291.2v-2.8a24.58,24.58,0,0,1,.2-2.8Q2128.75,514,1983,514Z"/><path class="cls-4" d="M2627.1,514H2321.3a8,8,0,0,1,0,5.7H2627"/><path class="cls-4" d="M2674.3,519.72h257V514H2674.2"/><polyline class="cls-4" points="460.5 519.72 269.7 519.72 269.7 514.02 460.5 514.02"/><path class="cls-4" d="M270.5,531.72a14.9,14.9,0,1,1,14.9-14.9A14.94,14.94,0,0,1,270.5,531.72Z"/><path class="cls-4" d="M2930.5,531.72a14.9,14.9,0,1,0-14.9-14.9A14.94,14.94,0,0,0,2930.5,531.72Z"/></g><g id="Texto"><text class="cls-5" transform="translate(356.45 230.01)">S<tspan class="cls-6" x="24.15" y="0">iglo I</tspan><tspan class="cls-7" x="114" y="0">X</tspan><tspan class="cls-8" x="137.93" y="0"> </tspan><tspan class="cls-9" x="148.87" y="0">y</tspan><tspan class="cls-10" x="169.02" y="0"> </tspan><tspan class="cls-6" x="180.31" y="0">XI</tspan></text><rect class="cls-11" x="354.5" y="261.72" width="420.6" height="123.2"/><g class="cls-12"><text class="cls-13" transform="translate(354.54 282.33)"><tspan class="cls-14">L</tspan><tspan x="16.5" y="0">os</tspan><tspan class="cls-15" x="48.62" y="0"> </tspan><tspan class="cls-16" x="57.14" y="0">A</tspan><tspan x="74.83" y="0">tacameños,</tspan><tspan class="cls-17" x="235.28" y="0"> </tspan><tspan x="244.39" y="0">fue</tspan><tspan class="cls-18" x="289.48" y="0">r</tspan><tspan x="300.57" y="0">on los </tspan></text><text class="cls-13" transform="translate(354.54 316.33)">prime<tspan class="cls-19" x="80.32" y="0">r</tspan><tspan class="cls-20" x="91.42" y="0">os pueblos originarios </tspan></text><text class="cls-13" transform="translate(354.54 350.23)">en <tspan class="cls-21" x="43.61" y="0">e</tspan><tspan x="59.52" y="0">xt</tspan><tspan class="cls-22" x="86.46" y="0">r</tspan><tspan class="cls-20" x="97.61" y="0">ae</tspan><tspan class="cls-23" x="130.08" y="0">r</tspan><tspan x="140.97" y="0" xml:space="preserve"> mine</tspan><tspan class="cls-24" x="219.09" y="0">r</tspan><tspan x="230.24" y="0">ales en Chile.</tspan></text></g><text class="cls-25" transform="translate(729.97 619.74)">1540 ·<tspan class="cls-26" x="107.21" y="0"> </tspan><tspan x="118.3" y="0">1598</tspan></text><rect class="cls-11" x="730.3" y="648.02" width="447.9" height="228.5"/><g class="cls-12"><text class="cls-13" transform="translate(730.31 668.73)"><tspan class="cls-14">L</tspan><tspan x="16.5" y="0">os españoles a</tspan><tspan class="cls-27" x="223.9" y="0">l</tspan><tspan x="231.57" y="0" xml:space="preserve"> llega</tspan><tspan class="cls-28" x="306.54" y="0">r</tspan><tspan class="cls-20" x="317.44" y="0" xml:space="preserve"> busc</tspan><tspan class="cls-28" x="393.32" y="0">a</tspan></text><text class="cls-13" transform="translate(1140.11 668.73)">-</text><text class="cls-13" transform="translate(730.31 702.73)">ban o<tspan class="cls-18" x="78.23" y="0">r</tspan><tspan class="cls-29" x="89.32" y="0">o</tspan><tspan class="cls-30" x="105.96" y="0">, pe</tspan><tspan class="cls-18" x="157.42" y="0">r</tspan><tspan x="168.51" y="0">o no enco</tspan><tspan class="cls-31" x="306.88" y="0">n</tspan><tspan class="cls-20" x="324.2" y="0">t</tspan><tspan class="cls-24" x="336.06" y="0">r</tspan><tspan class="cls-32" x="347.21" y="0">aban </tspan></text><text class="cls-13" transform="translate(730.31 736.63)">las ca<tspan class="cls-31" x="81.23" y="0">n</tspan><tspan class="cls-20" x="98.55" y="0">tidades que espe</tspan><tspan class="cls-33" x="337.73" y="0">r</tspan><tspan class="cls-32" x="348.88" y="0">aban </tspan></text><text class="cls-13" transform="translate(730.31 770.63)">po<tspan class="cls-23" x="35.04" y="0">r</tspan><tspan x="45.93" y="0" xml:space="preserve"> lo que comenza</tspan><tspan class="cls-19" x="277.81" y="0">r</tspan><tspan class="cls-20" x="288.91" y="0">on </tspan><tspan class="cls-28" x="333.29" y="0">a</tspan><tspan class="cls-34" x="348.66" y="0"> </tspan><tspan class="cls-21" x="358.31" y="0">e</tspan><tspan class="cls-29" x="374.21" y="0">x</tspan></text><text class="cls-13" transform="translate(1120.31 770.63)">-</text><text class="cls-13" transform="translate(730.31 804.63)">t<tspan class="cls-24" x="11.86" y="0">r</tspan><tspan x="23.01" y="0">ae</tspan><tspan class="cls-23" x="55.47" y="0">r</tspan><tspan x="66.37" y="0"> </tspan><tspan class="cls-35" x="76.02" y="0">o</tspan><tspan x="92.97" y="0">t</tspan><tspan class="cls-18" x="104.83" y="0">r</tspan><tspan x="115.93" y="0">os mine</tspan><tspan class="cls-24" x="226.16" y="0">r</tspan><tspan x="237.31" y="0">ales.</tspan></text></g><text class="cls-25" transform="translate(1034.86 225.84)">1589 ·<tspan class="cls-26" x="106.15" y="0"> </tspan><tspan x="117.25" y="0">1810 </tspan></text><text class="cls-25" transform="translate(1485.63 620.12)">1810 ·<tspan class="cls-26" x="101.02" y="0"> </tspan><tspan x="112.11" y="0">1</tspan><tspan class="cls-26" x="128.27" y="0">8</tspan><tspan x="151.32" y="0" xml:space="preserve">30  </tspan></text><rect class="cls-11" x="1034.9" y="268.42" width="450.9" height="240.4"/><g class="cls-12"><text class="cls-13" transform="translate(1034.86 289.04)">Chile dejó de depende<tspan class="cls-28" x="312.15" y="0">r</tspan><tspan class="cls-20" x="323.04" y="0" xml:space="preserve"> de l</tspan><tspan class="cls-36" x="385.28" y="0">a</tspan><tspan x="400.65" y="0"> </tspan></text><text class="cls-13" transform="translate(1034.86 323.04)">minerí<tspan class="cls-23" x="87.54" y="0">a</tspan><tspan x="102.91" y="0" xml:space="preserve"> económicame</tspan><tspan class="cls-31" x="306.8" y="0">n</tspan><tspan x="324.12" y="0">te, po</tspan><tspan class="cls-36" x="404.64" y="0">r</tspan><tspan x="415.53" y="0" xml:space="preserve"> lo </tspan></text><text class="cls-13" transform="translate(1034.86 356.94)">que los l<tspan class="cls-37" x="120.57" y="0">a</tspan><tspan class="cls-38" x="136.11" y="0">v</tspan><tspan class="cls-20" x="150.46" y="0">ande</tspan><tspan class="cls-18" x="218.27" y="0">r</tspan><tspan x="229.36" y="0">os de o</tspan><tspan class="cls-18" x="332.27" y="0">r</tspan><tspan class="cls-32" x="343.36" y="0">o se </tspan></text><text class="cls-13" transform="translate(1034.86 390.94)">t<tspan class="cls-24" x="11.86" y="0">r</tspan><tspan x="23.01" y="0">ans</tspan><tspan class="cls-24" x="71.46" y="0">f</tspan><tspan x="82.19" y="0">orma</tspan><tspan class="cls-18" x="153.94" y="0">r</tspan><tspan x="165.03" y="0">on en p</tspan><tspan class="cls-18" x="270.85" y="0">r</tspan><tspan x="281.95" y="0">oducción </tspan></text><text class="cls-13" transform="translate(1034.86 424.94)">de ganaderí<tspan class="cls-23" x="162.37" y="0">a</tspan><tspan class="cls-39" x="177.74" y="0" xml:space="preserve"> y</tspan><tspan x="201.12" y="0" xml:space="preserve"> agricu</tspan><tspan class="cls-40" x="294.88" y="0">l</tspan><tspan x="302.98" y="0">tu</tspan><tspan class="cls-33" x="332.35" y="0">r</tspan><tspan x="343.5" y="0">a. </tspan></text></g><rect class="cls-11" x="1481.5" y="646.92" width="431.9" height="211.5"/><g class="cls-12"><text class="cls-13" transform="translate(1481.49 667.53)">Con l<tspan class="cls-23" x="72.45" y="0">a</tspan><tspan x="87.82" y="0"> </tspan><tspan class="cls-41" x="97.47" y="0">I</tspan><tspan x="105.71" y="0">ndependenci</tspan><tspan class="cls-23" x="284.58" y="0">a</tspan><tspan x="299.95" y="0" xml:space="preserve"> de Chile,</tspan></text><text class="cls-13" transform="translate(1481.49 701.53)">l<tspan class="cls-23" x="8.66" y="0">a</tspan><tspan x="24.03" y="0" xml:space="preserve"> minerí</tspan><tspan class="cls-36" x="121.22" y="0">a</tspan><tspan class="cls-40" x="136.59" y="0"> </tspan><tspan x="145.67" y="0">tuvo un aume</tspan><tspan class="cls-31" x="338.27" y="0">n</tspan><tspan class="cls-34" x="355.59" y="0">to en </tspan></text><text class="cls-13" transform="translate(1481.49 735.44)">su auge<tspan class="cls-42" x="107.6" y="0" xml:space="preserve"> y</tspan><tspan x="130.98" y="0" xml:space="preserve"> se comenza</tspan><tspan class="cls-18" x="306.88" y="0">r</tspan><tspan x="317.98" y="0">on </tspan><tspan class="cls-28" x="362.35" y="0">a</tspan><tspan class="cls-34" x="377.72" y="0"> </tspan></text><text class="cls-13" transform="translate(1481.49 769.44)">hace<tspan class="cls-23" x="65.94" y="0">r</tspan><tspan x="76.84" y="0"> </tspan><tspan class="cls-17" x="86.49" y="0">e</tspan><tspan x="102.4" y="0">xpo</tspan><tspan class="cls-43" x="152.52" y="0">r</tspan><tspan class="cls-20" x="163.22" y="0">taciones.</tspan></text></g><text class="cls-25" transform="translate(1771.87 230.01)">1915 ·<tspan class="cls-26" x="98.79" y="0"> </tspan><tspan x="109.89" y="0">1</tspan><tspan class="cls-44" x="126.04" y="0">97</tspan><tspan x="170" y="0" xml:space="preserve">6  </tspan></text><rect class="cls-11" x="1773.7" y="263.32" width="426.3" height="187.4"/><g class="cls-12"><text class="cls-13" transform="translate(1773.7 284.02)">En Chile se comienz<tspan class="cls-23" x="282.2" y="0">a</tspan><tspan x="297.57" y="0"> </tspan><tspan class="cls-36" x="307.22" y="0">a</tspan><tspan x="322.59" y="0"> </tspan><tspan class="cls-17" x="332.24" y="0">e</tspan><tspan class="cls-29" x="348.15" y="0">x</tspan></text><text class="cls-13" transform="translate(2138 284.02)">-</text><text class="cls-13" transform="translate(1773.7 318.02)">t<tspan class="cls-24" x="11.86" y="0">r</tspan><tspan x="23.01" y="0">ae</tspan><tspan class="cls-23" x="55.47" y="0">r</tspan><tspan x="66.37" y="0" xml:space="preserve"> e</tspan><tspan class="cls-27" x="92.46" y="0">l</tspan><tspan x="100.13" y="0" xml:space="preserve"> cob</tspan><tspan class="cls-18" x="160.79" y="0">r</tspan><tspan x="171.88" y="0">e, debido </tspan><tspan class="cls-36" x="309.82" y="0">a</tspan><tspan x="325.19" y="0" xml:space="preserve"> l</tspan><tspan class="cls-23" x="343.5" y="0">a</tspan><tspan class="cls-32" x="358.87" y="0"> </tspan></text><text class="cls-13" transform="translate(1773.7 351.92)">baj<tspan class="cls-23" x="41.38" y="0">a</tspan><tspan x="56.75" y="0" xml:space="preserve"> de l</tspan><tspan class="cls-36" x="118.98" y="0">a</tspan><tspan x="134.35" y="0"> </tspan><tspan class="cls-21" x="144" y="0">e</tspan><tspan x="159.91" y="0">xt</tspan><tspan class="cls-22" x="186.85" y="0">r</tspan><tspan class="cls-20" x="198" y="0">acción de</tspan><tspan class="cls-27" x="332.13" y="0">l</tspan><tspan x="339.8" y="0" xml:space="preserve"> sali</tspan></text><text class="cls-13" transform="translate(2172.4 351.92)">-</text><text class="cls-13" transform="translate(1773.7 385.92)">t<tspan class="cls-18" x="11.86" y="0">r</tspan><tspan x="22.95" y="0">e. </tspan><tspan class="cls-35" x="56.58" y="0">P</tspan><tspan x="73.59" y="0">osterio</tspan><tspan class="cls-23" x="170.29" y="0">r</tspan><tspan x="181.19" y="0"> </tspan><tspan class="cls-36" x="190.84" y="0">a</tspan><tspan x="206.21" y="0" xml:space="preserve"> esto luego de </tspan></text><text class="cls-13" transform="translate(1773.7 419.92)">unos años se nacionaliz<tspan class="cls-23" x="332.21" y="0">a</tspan><tspan class="cls-34" x="347.58" y="0" xml:space="preserve"> e</tspan><tspan class="cls-45" x="373.67" y="0">l</tspan><tspan x="381.34" y="0"> </tspan></text></g><text class="cls-25" transform="translate(2258.29 619.74)">1<tspan class="cls-44" x="16.15" y="0">97</tspan><tspan class="cls-6" x="60.11" y="0">6 ·</tspan><tspan class="cls-26" x="104.61" y="0"> </tspan><tspan class="cls-46" x="115.7" y="0" xml:space="preserve">1990  </tspan></text><rect class="cls-11" x="2257.9" y="647.12" width="403.7" height="251.1"/><g class="cls-12"><text class="cls-13" transform="translate(2257.93 667.75)">En Chile s comen<tspan class="cls-47" x="243.12" y="0">z</tspan><tspan x="258" y="0">ó </tspan><tspan class="cls-36" x="284.86" y="0">a</tspan><tspan x="300.23" y="0" xml:space="preserve"> est</tspan><tspan class="cls-28" x="353.1" y="0">a</tspan></text><text class="cls-13" transform="translate(2627.03 667.75)">-</text><text class="cls-13" transform="translate(2257.93 701.75)">blece<tspan class="cls-23" x="75.34" y="0">r</tspan><tspan x="86.24" y="0"> </tspan><tspan class="cls-23" x="95.89" y="0">a</tspan><tspan x="111.26" y="0" xml:space="preserve"> minerí</tspan><tspan class="cls-36" x="208.45" y="0">a</tspan><tspan x="223.81" y="0" xml:space="preserve"> en Chile, </tspan></text><text class="cls-13" transform="translate(2257.93 735.65)">espandiendose su come<tspan class="cls-18" x="336.77" y="0">r</tspan><tspan x="347.86" y="0">cio </tspan></text><text class="cls-13" transform="translate(2257.93 769.65)"><tspan class="cls-39">y</tspan><tspan x="14.43" y="0"> </tspan><tspan class="cls-17" x="24.08" y="0">e</tspan><tspan x="39.99" y="0">xt</tspan><tspan class="cls-24" x="66.93" y="0">r</tspan><tspan x="78.09" y="0">acción.</tspan></text></g><text class="cls-25" transform="translate(2470.06 225.84)">En <tspan class="cls-48" x="58.79" y="0">l</tspan><tspan class="cls-49" x="70.87" y="0">a</tspan><tspan x="92" y="0"> </tspan><tspan class="cls-50" x="103.55" y="0">a</tspan><tspan x="125.13" y="0">ctualid</tspan><tspan class="cls-51" x="254.23" y="0">a</tspan><tspan x="275.81" y="0" xml:space="preserve">d   </tspan></text><rect class="cls-11" x="2465.3" y="264.32" width="436" height="200.4"/><g class="cls-12"><text class="cls-13" transform="translate(2465.35 284.99)"><tspan class="cls-41">S</tspan><tspan x="18" y="0">i bien se sigue p</tspan><tspan class="cls-18" x="244.59" y="0">r</tspan><tspan x="255.68" y="0">oduciend</tspan><tspan class="cls-52" x="383.52" y="0">o</tspan><tspan x="400.17" y="0">, </tspan></text><text class="cls-13" transform="translate(2465.35 318.99)">l<tspan class="cls-23" x="8.66" y="0">a</tspan><tspan x="24.03" y="0" xml:space="preserve"> industri</tspan><tspan class="cls-36" x="139.93" y="0">a</tspan><tspan x="155.29" y="0" xml:space="preserve"> mine</tspan><tspan class="cls-24" x="233.41" y="0">r</tspan><tspan class="cls-23" x="244.56" y="0">a</tspan><tspan x="259.93" y="0" xml:space="preserve"> u</tspan><tspan class="cls-40" x="287.1" y="0">l</tspan><tspan class="cls-20" x="295.19" y="0">timamen</tspan></text><text class="cls-13" transform="translate(2886.35 318.99)">-</text><text class="cls-13" transform="translate(2465.35 352.89)">te <tspan class="cls-23" x="37.95" y="0">a</tspan><tspan x="53.32" y="0" xml:space="preserve"> sufrido algunas alzas</tspan><tspan class="cls-42" x="356.86" y="0" xml:space="preserve"> y</tspan><tspan x="380.24" y="0"> </tspan></text><text class="cls-13" transform="translate(2465.35 386.89)">bajas lo que h<tspan class="cls-36" x="196.47" y="0">a</tspan><tspan x="211.84" y="0" xml:space="preserve"> hecho que se </tspan></text><text class="cls-13" transform="translate(2465.35 420.89)">encue<tspan class="cls-31" x="83.89" y="0">n</tspan><tspan x="101.21" y="0">t</tspan><tspan class="cls-18" x="113.07" y="0">r</tspan><tspan class="cls-30" x="124.16" y="0">e inestable.</tspan></text></g></g></svg>