<svg id="texto" xmlns="http://www.w3.org/2000/svg" viewBox="0 0 3074.14 4391.94"><defs><style>.cls-1,.cls-10,.cls-13,.cls-14,.cls-15,.cls-16,.cls-17,.cls-18,.cls-2,.cls-20,.cls-21,.cls-22,.cls-23,.cls-25,.cls-26,.cls-27,.cls-29,.cls-3,.cls-30,.cls-31,.cls-32,.cls-33,.cls-34,.cls-4,.cls-5,.cls-6,.cls-7,.cls-8,.cls-9{isolation:isolate;}.cls-10,.cls-18,.cls-2,.cls-20,.cls-21,.cls-22,.cls-23,.cls-25,.cls-26,.cls-27,.cls-3,.cls-30,.cls-31,.cls-4,.cls-5,.cls-6,.cls-7,.cls-8,.cls-9{font-size:70px;fill:#fff;font-family:WorkSans-Regular, Work Sans;}.cls-2{letter-spacing:-0.04em;}.cls-4{letter-spacing:-0.03em;}.cls-5{letter-spacing:-0.02em;}.cls-6{letter-spacing:-0.03em;}.cls-7{letter-spacing:-0.04em;}.cls-8{letter-spacing:-0.06em;}.cls-9{letter-spacing:-0.04em;}.cls-10{letter-spacing:-0.01em;}.cls-11{letter-spacing:-0.03em;}.cls-12,.cls-26{letter-spacing:-0.02em;}.cls-13,.cls-14,.cls-15,.cls-16,.cls-17,.cls-29{font-size:100px;}.cls-13,.cls-14,.cls-15,.cls-16,.cls-17,.cls-29,.cls-32,.cls-33,.cls-34{fill:#ef7c10;font-family:WorkSans-Bold, Work Sans;font-weight:700;}.cls-14{letter-spacing:-0.02em;}.cls-15{letter-spacing:-0.03em;}.cls-16{letter-spacing:-0.01em;}.cls-17,.cls-32{letter-spacing:-0.01em;}.cls-18{letter-spacing:0.14em;}.cls-19{letter-spacing:-0.02em;}.cls-20{letter-spacing:-0.05em;}.cls-21{letter-spacing:-0.07em;}.cls-22{letter-spacing:-0.04em;}.cls-23{letter-spacing:-0.04em;}.cls-24,.cls-30{letter-spacing:-0.03em;}.cls-25{letter-spacing:-0.05em;}.cls-27{letter-spacing:-0.03em;}.cls-28{letter-spacing:-0.01em;}.cls-29{letter-spacing:-0.04em;}.cls-31{letter-spacing:-0.13em;}.cls-32,.cls-33,.cls-34{font-size:150px;}.cls-34{letter-spacing:-0.01em;}</style></defs><title>magnitud-2</title><g class="cls-1"><text class="cls-2" transform="translate(1986.92 647.57)">L</text><text class="cls-3" transform="translate(2027.73 647.57)">o que equi</text><text class="cls-4" transform="translate(2391.03 647.57)">v</text><text class="cls-3" transform="translate(2426.52 647.57)">ale que si</text><text class="cls-5" transform="translate(2758.66 647.57)"> </text><text class="cls-3" transform="translate(2781.2 647.57)">fue</text><text class="cls-6" transform="translate(2892.29 647.57)">r</text><text class="cls-7" transform="translate(2919.87 647.57)">a</text><text class="cls-3" transform="translate(2957.88 647.57)"> </text><text class="cls-3" transform="translate(1986.92 731.57)">financiado con e</text><text class="cls-8" transform="translate(2555.31 731.57)">l</text><text class="cls-3" transform="translate(2574.28 731.57)"><tspan xml:space="preserve"> dine</tspan></text><text class="cls-9" transform="translate(2744.38 731.57)">r</text><text class="cls-3" transform="translate(2771.82 731.57)">o </text><text class="cls-3" transform="translate(1986.92 815.57)">o</text><text class="cls-10" transform="translate(2028.92 815.57)">b</text><text class="cls-3" transform="translate(2072.18 815.57)">tenido de <tspan class="cls-11" x="351.11" y="0">l</tspan></text><text class="cls-7" transform="translate(2443.18 815.57)">a</text><text class="cls-3" transform="translate(2481.19 815.57)"><tspan xml:space="preserve"> mie</tspan></text><text class="cls-6" transform="translate(2630.77 815.57)">r</text><text class="cls-3" transform="translate(2658.35 815.57)">as en </text><text class="cls-3" transform="translate(1986.92 899.57)">un año se podri</text><text class="cls-7" transform="translate(2524.23 899.57)">a</text><text class="cls-5" transform="translate(2562.24 899.57)"> </text><text class="cls-3" transform="translate(2584.78 899.57)">fianci<tspan class="cls-12" x="187.18" y="0">a</tspan></text><text class="cls-9" transform="translate(2811.3 899.57)">r</text><text class="cls-3" transform="translate(2838.25 899.57)"><tspan xml:space="preserve"> po</tspan></text><text class="cls-9" transform="translate(2948.01 899.57)">r</text><text class="cls-3" transform="translate(2974.96 899.57)"> </text><text class="cls-13" transform="translate(1986.92 1019.57)">20 años ap</text><text class="cls-14" transform="translate(2521.82 1019.57)">r</text><text class="cls-15" transform="translate(2564.21 1019.57)">o</text><text class="cls-16" transform="translate(2621.52 1019.57)">x</text><text class="cls-13" transform="translate(2681.11 1019.57)">.</text></g><g class="cls-1"><text class="cls-3" transform="translate(393.63 2069.84)">Se </text><text class="cls-9" transform="translate(502.76 2069.84)">r</text><text class="cls-3" transform="translate(530.2 2069.84)">equie</text><text class="cls-9" transform="translate(716.68 2069.84)">r</text><text class="cls-3" transform="translate(744.12 2069.84)">e de un</text><text class="cls-7" transform="translate(1003.04 2069.84)">a</text><text class="cls-3" transform="translate(1041.05 2069.84)"> </text><text class="cls-3" transform="translate(627.15 2153.84)">i</text><text class="cls-10" transform="translate(645.77 2153.84)">n</text><text class="cls-3" transform="translate(688.19 2153.84)">ve</text><text class="cls-9" transform="translate(764.98 2153.84)">r</text><text class="cls-3" transform="translate(792.07 2153.84)">sión de </text><text class="cls-13" transform="translate(486.66 2273.84)">US$</text><text class="cls-17" transform="translate(686.25 2273.84)"> </text><text class="cls-13" transform="translate(714.05 2273.84)">1</text><text class="cls-17" transform="translate(757.15 2273.84)">0</text><text class="cls-13" transform="translate(820.55 2273.84)">.</text><text class="cls-13" transform="translate(849.15 2273.84)">448</text><text class="cls-3" transform="translate(1041.05 2273.84)"> </text><text class="cls-3" transform="translate(203.77 2357.84)">millones</text><text class="cls-18" transform="translate(494.55 2357.84)"> </text><text class="cls-3" transform="translate(528.47 2357.84)">p<tspan class="cls-19" x="44.1" y="0">a</tspan></text><text class="cls-6" transform="translate(611.98 2357.84)">r</text><text class="cls-7" transform="translate(639.56 2357.84)">a</text><text class="cls-18" transform="translate(677.57 2357.84)"> </text><text class="cls-3" transform="translate(711.49 2357.84)">m<tspan class="cls-19" x="66.71" y="0">a</tspan></text><text class="cls-10" transform="translate(817.82 2357.84)">n</text><text class="cls-3" transform="translate(860.66 2357.84)">tene</text><text class="cls-9" transform="translate(1014.1 2357.84)">r</text><text class="cls-3" transform="translate(1041.05 2357.84)"> </text><text class="cls-3" transform="translate(203.77 2441.84)">los</text><text class="cls-20" transform="translate(304.08 2441.84)"> </text><text class="cls-3" transform="translate(324.78 2441.84)">hospitales</text><text class="cls-20" transform="translate(677.15 2441.84)"> </text><text class="cls-3" transform="translate(697.85 2441.84)">actuales</text><text class="cls-21" transform="translate(987.51 2441.84)"> </text><text class="cls-22" transform="translate(1006.68 2441.84)">y</text><text class="cls-3" transform="translate(1041.05 2441.84)"> </text><text class="cls-3" transform="translate(464.26 2525.84)">fianaci<tspan class="cls-12" x="226.8" y="0">a</tspan></text><text class="cls-9" transform="translate(730.4 2525.84)">r</text><text class="cls-3" transform="translate(757.35 2525.84)"><tspan xml:space="preserve"> nu</tspan></text><text class="cls-10" transform="translate(867.73 2525.84)">e</text><text class="cls-3" transform="translate(907.15 2525.84)">vos.</text><text class="cls-20" transform="translate(316.49 2609.84)">(</text><text class="cls-3" transform="translate(337.42 2609.84)">e</text><text class="cls-10" transform="translate(377.81 2609.84)">n</text><text class="cls-3" transform="translate(420.65 2609.84)">t</text><text class="cls-9" transform="translate(449.98 2609.84)">r</text><text class="cls-3" transform="translate(477.42 2609.84)">e los 2018</text><text class="cls-23" transform="translate(820.62 2609.84)">-</text><text class="cls-3" transform="translate(853.52 2609.84)">20</text><text class="cls-5" transform="translate(937.87 2609.84)">2</text><text class="cls-3" transform="translate(977.28 2609.84)">7)</text></g><g class="cls-1"><text class="cls-3" transform="translate(1986.92 3686.92)">S</text><text class="cls-3" transform="translate(2031.44 3686.92)">i</text><text class="cls-5" transform="translate(2050.06 3686.92)"> </text><text class="cls-3" transform="translate(2072.6 3686.92)">fue</text><text class="cls-6" transform="translate(2183.69 3686.92)">r</text><text class="cls-7" transform="translate(2211.27 3686.92)">a</text><text class="cls-5" transform="translate(2249.28 3686.92)"> </text><text class="cls-3" transform="translate(2271.82 3686.92)">finaciado po</text><text class="cls-9" transform="translate(2693.98 3686.92)">r</text><text class="cls-3" transform="translate(2720.93 3686.92)"><tspan xml:space="preserve"> las </tspan></text><text class="cls-3" transform="translate(1986.92 3770.92)">ganacias de las mine</text><text class="cls-6" transform="translate(2703.92 3770.92)">r</text><text class="cls-3" transform="translate(2731.5 3770.92)">as </text><text class="cls-3" transform="translate(1986.92 3854.92)">de un año equi</text><text class="cls-4" transform="translate(2500.36 3854.92)">v</text><text class="cls-3" transform="translate(2535.85 3854.92)">aldri</text><text class="cls-7" transform="translate(2687.96 3854.92)">a</text><text class="cls-3" transform="translate(2725.97 3854.92)"> </text><text class="cls-7" transform="translate(1986.92 3938.92)">a</text><text class="cls-3" transform="translate(2024.93 3938.92)"> <tspan class="cls-24" x="23.87" y="0">l</tspan></text><text class="cls-7" transform="translate(2070.22 3938.92)">a</text><text class="cls-3" transform="translate(2108.23 3938.92)"><tspan xml:space="preserve"> m</tspan><tspan class="cls-19" x="90.58" y="0">a</tspan></text><text class="cls-10" transform="translate(2238.42 3938.92)">n</text><text class="cls-3" transform="translate(2281.27 3938.92)">tencion</text><text class="cls-25" transform="translate(2537.46 3938.92)"><tspan xml:space="preserve"> y</tspan></text><text class="cls-3" transform="translate(2593.95 3938.92)"> </text><text class="cls-3" transform="translate(1986.92 4022.92)">construccion de </text><text class="cls-26" transform="translate(1986.92 4106.92)">á</text><text class="cls-9" transform="translate(2026.54 4106.92)">r</text><text class="cls-3" transform="translate(2053.98 4106.92)">eas</text><text class="cls-27" transform="translate(2170.88 4106.92)"> </text><text class="cls-3" transform="translate(2193 4106.92)">ve</text><text class="cls-9" transform="translate(2269.79 4106.92)">r</text><text class="cls-3" transform="translate(2297.23 4106.92)">des po</text><text class="cls-9" transform="translate(2528.15 4106.92)">r</text><text class="cls-13" transform="translate(1986.92 4226.92)">53 años apo<tspan class="cls-28" x="589.49" y="0">r</tspan></text><text class="cls-29" transform="translate(2618.31 4226.92)">x</text></g><g class="cls-1"><text class="cls-3" transform="translate(331.79 651.05)">Con un</text><text class="cls-7" transform="translate(575.53 651.05)">a</text><text class="cls-3" transform="translate(613.54 651.05)"><tspan xml:space="preserve"> i</tspan></text><text class="cls-10" transform="translate(656.02 651.05)">n</text><text class="cls-3" transform="translate(698.44 651.05)">ve</text><text class="cls-9" transform="translate(775.23 651.05)">r</text><text class="cls-3" transform="translate(802.32 651.05)">sión de </text><text class="cls-13" transform="translate(193.04 771.05)">US$</text><text class="cls-17" transform="translate(392.64 771.05)"> </text><text class="cls-13" transform="translate(420.44 771.05)">15</text><text class="cls-17" transform="translate(521.83 771.05)">.</text><text class="cls-13" transform="translate(550.23 771.05)">6</text><text class="cls-17" transform="translate(611.83 771.05)">9</text><text class="cls-13" transform="translate(672.63 771.05)">3 </text><text class="cls-3" transform="translate(760.53 771.05)">millones </text><text class="cls-3" transform="translate(504.76 855.05)">se m<tspan class="cls-19" x="168.14" y="0">a</tspan></text><text class="cls-10" transform="translate(712.23 855.05)">n</text><text class="cls-3" transform="translate(755.07 855.05)">tiene los </text><text class="cls-3" transform="translate(464.79 939.05)">establecimie</text><text class="cls-10" transform="translate(900.25 939.05)">n</text><text class="cls-3" transform="translate(943.09 939.05)">tos </text><text class="cls-3" transform="translate(68.87 1023.05)">educacionales de enseñanz</text><text class="cls-7" transform="translate(1013.3 1023.05)">a</text><text class="cls-3" transform="translate(1051.31 1023.05)"> </text><text class="cls-3" transform="translate(214.47 1107.05)">basica.</text><text class="cls-20" transform="translate(450.92 1107.05)">(</text><text class="cls-3" transform="translate(471.85 1107.05)">e</text><text class="cls-10" transform="translate(512.24 1107.05)">n</text><text class="cls-3" transform="translate(555.08 1107.05)">t</text><text class="cls-9" transform="translate(584.41 1107.05)">r</text><text class="cls-3" transform="translate(611.85 1107.05)">e 2018</text><text class="cls-23" transform="translate(830.88 1107.05)">-</text><text class="cls-3" transform="translate(863.78 1107.05)">20</text><text class="cls-5" transform="translate(948.13 1107.05)">2</text><text class="cls-3" transform="translate(987.54 1107.05)">7)</text></g><g class="cls-1"><text class="cls-3" transform="translate(1986.92 2071.61)">S</text><text class="cls-3" transform="translate(2031.44 2071.61)">i se destin<tspan class="cls-12" x="356.85" y="0">a</tspan></text><text class="cls-6" transform="translate(2427.14 2071.61)">r</text><text class="cls-7" transform="translate(2454.72 2071.61)">a</text><text class="cls-5" transform="translate(2492.73 2071.61)"> </text><text class="cls-3" transform="translate(2515.2 2071.61)">todo <tspan class="cls-24" x="182.42" y="0">l</tspan></text><text class="cls-7" transform="translate(2717.71 2071.61)">a</text><text class="cls-3" transform="translate(2755.72 2071.61)"> </text><text class="cls-3" transform="translate(1986.92 2155.61)">p<tspan class="cls-11" x="44.1" y="0">l</tspan></text><text class="cls-7" transform="translate(2052.23 2155.61)">a</text><text class="cls-3" transform="translate(2090.45 2155.61)">t</text><text class="cls-7" transform="translate(2119.78 2155.61)">a</text><text class="cls-3" transform="translate(2157.79 2155.61)"> </text><text class="cls-9" transform="translate(2181.66 2155.61)">r</text><text class="cls-3" transform="translate(2209.1 2155.61)">ecaudad</text><text class="cls-7" transform="translate(2498.9 2155.61)">a</text><text class="cls-3" transform="translate(2536.91 2155.61)"><tspan xml:space="preserve"> po</tspan></text><text class="cls-9" transform="translate(2646.67 2155.61)">r</text><text class="cls-3" transform="translate(2673.62 2155.61)"><tspan xml:space="preserve"> las </tspan></text><text class="cls-3" transform="translate(1986.92 2239.61)">mine</text><text class="cls-6" transform="translate(2155.97 2239.61)">r</text><text class="cls-3" transform="translate(2183.55 2239.61)">as en un añ</text><text class="cls-5" transform="translate(2584.85 2239.61)">o</text><text class="cls-3" transform="translate(2625.45 2239.61)">,</text><text class="cls-3" transform="translate(1986.92 2323.61)">equi</text><text class="cls-4" transform="translate(2133.01 2323.61)">v</text><text class="cls-3" transform="translate(2168.5 2323.61)">aldri</text><text class="cls-7" transform="translate(2320.61 2323.61)">a</text><text class="cls-3" transform="translate(2358.62 2323.61)"> </text><text class="cls-7" transform="translate(2382.49 2323.61)">a</text><text class="cls-3" transform="translate(2420.5 2323.61)"> </text><text class="cls-30" transform="translate(1986.92 2407.61)">l</text><text class="cls-7" transform="translate(2008.34 2407.61)">a</text><text class="cls-3" transform="translate(2046.35 2407.61)"><tspan xml:space="preserve"> construccion</tspan></text><text class="cls-22" transform="translate(2515.06 2407.61)"><tspan xml:space="preserve"> y</tspan></text><text class="cls-3" transform="translate(2571.55 2407.61)"> </text><text class="cls-3" transform="translate(1986.92 2491.61)">m<tspan class="cls-19" x="66.71" y="0">a</tspan></text><text class="cls-10" transform="translate(2093.25 2491.61)">n</text><text class="cls-3" transform="translate(2136.09 2491.61)">tencion de los</text><text class="cls-3" transform="translate(1986.92 2575.61)">hospitales po</text><text class="cls-9" transform="translate(2449.06 2575.61)">r</text><text class="cls-3" transform="translate(2476 2575.61)"> </text><text class="cls-13" transform="translate(1986.92 2695.61)">28 años apo<tspan class="cls-28" x="594.19" y="0">r</tspan></text><text class="cls-16" transform="translate(2623.01 2695.61)">x</text><text class="cls-13" transform="translate(2682.61 2695.61)">.</text></g><g class="cls-1"><text class="cls-3" transform="translate(234.21 3695.72)">Se estim</text><text class="cls-7" transform="translate(535.27 3695.72)">a</text><text class="cls-3" transform="translate(573.28 3695.72)"><tspan xml:space="preserve"> un</tspan></text><text class="cls-7" transform="translate(683.67 3695.72)">a</text><text class="cls-3" transform="translate(721.68 3695.72)"><tspan xml:space="preserve"> i</tspan></text><text class="cls-10" transform="translate(764.17 3695.72)">n</text><text class="cls-3" transform="translate(806.59 3695.72)">ve</text><text class="cls-9" transform="translate(883.38 3695.72)">r</text><text class="cls-3" transform="translate(910.47 3695.72)">sión </text><text class="cls-3" transform="translate(524.36 3815.72)">de </text><text class="cls-13" transform="translate(632.51 3815.72)">US$ 640</text><text class="cls-3" transform="translate(1051.31 3815.72)"> </text><text class="cls-3" transform="translate(289.51 3899.72)">millones p<tspan class="cls-19" x="359.58" y="0">a</tspan></text><text class="cls-6" transform="translate(687.66 3899.72)">r</text><text class="cls-7" transform="translate(715.24 3899.72)">a</text><text class="cls-3" transform="translate(753.25 3899.72)"><tspan xml:space="preserve"> supli</tspan></text><text class="cls-9" transform="translate(941.13 3899.72)">r</text><text class="cls-3" transform="translate(968.08 3899.72)"><tspan xml:space="preserve"> e</tspan></text><text class="cls-8" transform="translate(1032.34 3899.72)">l</text><text class="cls-3" transform="translate(1051.31 3899.72)"> </text><text class="cls-3" transform="translate(270.61 3983.72)">d</text><text class="cls-3" transform="translate(314.5 3983.72)">é</text><text class="cls-3" transform="translate(354.54 3983.72)">ficit de <tspan class="cls-12" x="266.07" y="0">á</tspan></text><text class="cls-9" transform="translate(659.45 3983.72)">r</text><text class="cls-3" transform="translate(686.89 3983.72)">eas</text><text class="cls-5" transform="translate(803.79 3983.72)"> </text><text class="cls-3" transform="translate(825.91 3983.72)">ve</text><text class="cls-9" transform="translate(902.7 3983.72)">r</text><text class="cls-3" transform="translate(930.14 3983.72)">des </text><text class="cls-25" transform="translate(178.35 4067.72)">y</text><text class="cls-3" transform="translate(212.72 4067.72)"><tspan xml:space="preserve"> espacios públicos e</tspan></text><text class="cls-10" transform="translate(911.31 4067.72)">n</text><text class="cls-3" transform="translate(954.15 4067.72)">t</text><text class="cls-9" transform="translate(983.48 4067.72)">r</text><text class="cls-3" transform="translate(1010.92 4067.72)">e</text><text class="cls-3" transform="translate(307.5 4151.72)"><tspan xml:space="preserve"> los años 2018</tspan></text><text class="cls-25" transform="translate(796.02 4151.72)"><tspan xml:space="preserve"> y</tspan></text><text class="cls-3" transform="translate(852.51 4151.72)"><tspan xml:space="preserve"> 20</tspan></text><text class="cls-5" transform="translate(960.73 4151.72)">2</text><text class="cls-31" transform="translate(1000.14 4151.72)">7</text><text class="cls-3" transform="translate(1032.69 4151.72)">.</text></g><g class="cls-1"><text class="cls-32" transform="translate(1154.95 391.6)">E</text><text class="cls-33" transform="translate(1248.4 391.6)">duc</text><text class="cls-34" transform="translate(1520.35 391.6)">a</text><text class="cls-33" transform="translate(1606.6 391.6)">ción</text></g><g class="cls-1"><text class="cls-33" transform="translate(1327.3 1771.85)">S</text><text class="cls-33" transform="translate(1423.45 1771.85)">alud</text></g><g class="cls-1"><text class="cls-33" transform="translate(870.78 3431.46)">Es</text><text class="cls-33" transform="translate(1045.38 3431.46)">p</text><text class="cls-34" transform="translate(1138.68 3431.46)">a</text><text class="cls-33" transform="translate(1224.93 3431.46)">cios Públicos</text></g></svg>