<svg id="texto" xmlns="http://www.w3.org/2000/svg" viewBox="0 0 3074.14 4391.94"><defs><style>.cls-1,.cls-21{font-size:70px;fill:#fff;font-family:WorkSans-Regular, Work Sans;}.cls-2{letter-spacing:-0.01em;}.cls-3{letter-spacing:-0.01em;}.cls-4{letter-spacing:-0.02em;}.cls-5{letter-spacing:-0.01em;}.cls-6{letter-spacing:-0.02em;}.cls-7{letter-spacing:-0.03em;}.cls-8{letter-spacing:-0.02em;}.cls-9{letter-spacing:-0.01em;}.cls-10{letter-spacing:-0.02em;}.cls-11,.cls-48{font-size:100px;}.cls-11,.cls-48,.cls-52{fill:#ef7c10;font-family:WorkSans-Bold, Work Sans;font-weight:700;}.cls-12{letter-spacing:-0.01em;}.cls-13{letter-spacing:-0.03em;}.cls-14{letter-spacing:0.01em;}.cls-15{letter-spacing:-0.02em;}.cls-16{letter-spacing:-0.02em;}.cls-17{letter-spacing:-0.01em;}.cls-18{letter-spacing:0em;}.cls-19{letter-spacing:-0.01em;}.cls-20{letter-spacing:0em;}.cls-21{font-weight:400;}.cls-22{letter-spacing:0.14em;}.cls-23{letter-spacing:-0.01em;}.cls-24{letter-spacing:-0.05em;}.cls-25{letter-spacing:-0.05em;}.cls-26{letter-spacing:-0.07em;}.cls-27{letter-spacing:-0.02em;}.cls-28{letter-spacing:-0.01em;}.cls-29{letter-spacing:-0.05em;}.cls-30{letter-spacing:-0.01em;}.cls-31{letter-spacing:0em;}.cls-32{letter-spacing:-0.04em;}.cls-33{letter-spacing:-0.02em;}.cls-34{letter-spacing:0em;}.cls-35{letter-spacing:-0.02em;}.cls-36{letter-spacing:-0.02em;}.cls-37{letter-spacing:-0.01em;}.cls-38{letter-spacing:0em;}.cls-39{letter-spacing:-0.03em;}.cls-40{letter-spacing:-0.02em;}.cls-41{letter-spacing:-0.01em;}.cls-42{letter-spacing:-0.01em;}.cls-43{letter-spacing:0em;}.cls-44{letter-spacing:0em;}.cls-45{letter-spacing:0em;}.cls-46{letter-spacing:-0.02em;}.cls-47{letter-spacing:-0.01em;}.cls-49{letter-spacing:-0.02em;}.cls-50{letter-spacing:-0.02em;}.cls-51{letter-spacing:-0.1em;}.cls-52{font-size:150px;}.cls-53{letter-spacing:-0.01em;}.cls-54{letter-spacing:0em;}.cls-55{letter-spacing:0em;}</style></defs><text class="cls-1" transform="translate(1986.92 450.86)"><tspan class="cls-2">L</tspan><tspan x="40.81" y="0">o que equi</tspan><tspan class="cls-3" x="404.11" y="0">v</tspan><tspan x="439.6" y="0">ale que si</tspan><tspan class="cls-4" x="771.74" y="0"> </tspan><tspan x="794.28" y="0">fue</tspan><tspan class="cls-5" x="905.37" y="0">r</tspan><tspan class="cls-6" x="932.95" y="0">a</tspan><tspan x="970.96" y="0"> </tspan><tspan x="0" y="84">financiado con e</tspan><tspan class="cls-7" x="568.39" y="84">l</tspan><tspan x="587.36" y="84" xml:space="preserve"> dine</tspan><tspan class="cls-8" x="757.46" y="84">r</tspan><tspan x="784.9" y="84">o </tspan><tspan x="0" y="168">o</tspan><tspan class="cls-9" x="42" y="168">b</tspan><tspan x="85.26" y="168">tenido de l</tspan><tspan class="cls-6" x="456.26" y="168">a</tspan><tspan x="494.27" y="168" xml:space="preserve"> mie</tspan><tspan class="cls-5" x="643.85" y="168">r</tspan><tspan x="671.43" y="168">as en </tspan><tspan x="0" y="252">un año se podri</tspan><tspan class="cls-6" x="537.31" y="252">a</tspan><tspan class="cls-4" x="575.32" y="252"> </tspan><tspan x="597.86" y="252">fiancia</tspan><tspan class="cls-6" x="824.38" y="252">r</tspan><tspan x="851.33" y="252" xml:space="preserve"> po</tspan><tspan class="cls-10" x="961.09" y="252">r</tspan><tspan x="988.04" y="252"> </tspan><tspan class="cls-11"><tspan x="0" y="372">20 años ap</tspan><tspan class="cls-12" x="534.9" y="372">r</tspan><tspan class="cls-13" x="577.29" y="372">o</tspan><tspan class="cls-14" x="634.6" y="372">x</tspan><tspan x="694.19" y="372">.</tspan></tspan></text><text class="cls-1" transform="translate(393.63 1877.13)">Se <tspan class="cls-15" x="109.13" y="0">r</tspan><tspan x="136.57" y="0">equie</tspan><tspan class="cls-15" x="323.05" y="0">r</tspan><tspan x="350.49" y="0">e de un</tspan><tspan class="cls-6" x="609.41" y="0">a</tspan><tspan x="647.42" y="0"> </tspan><tspan x="233.52" y="84">i</tspan><tspan class="cls-3" x="252.14" y="84">n</tspan><tspan x="294.56" y="84">ve</tspan><tspan class="cls-16" x="371.35" y="84">r</tspan><tspan x="398.44" y="84">sión de </tspan><tspan class="cls-11"><tspan x="93.03" y="204">US$</tspan><tspan class="cls-17" x="292.62" y="204"> </tspan><tspan class="cls-18" x="320.42" y="204">1</tspan><tspan class="cls-19" x="363.52" y="204">0</tspan><tspan class="cls-20" x="426.92" y="204">.</tspan><tspan x="455.52" y="204">448</tspan><tspan class="cls-21" x="647.42" y="204"> </tspan></tspan><tspan x="-189.86" y="288">millones</tspan><tspan class="cls-22" x="100.92" y="288"> </tspan><tspan x="134.84" y="288">pa</tspan><tspan class="cls-5" x="218.35" y="288">r</tspan><tspan class="cls-6" x="245.93" y="288">a</tspan><tspan class="cls-22" x="283.94" y="288"> </tspan><tspan x="317.86" y="288">ma</tspan><tspan class="cls-23" x="424.19" y="288">n</tspan><tspan x="467.03" y="288">tene</tspan><tspan class="cls-6" x="620.47" y="288">r</tspan><tspan x="647.42" y="288"> </tspan><tspan x="-189.86" y="372">los</tspan><tspan class="cls-24" x="-89.55" y="372"> </tspan><tspan x="-68.85" y="372">hospitales</tspan><tspan class="cls-25" x="283.52" y="372"> </tspan><tspan x="304.22" y="372">actuales</tspan><tspan class="cls-26" x="593.88" y="372"> </tspan><tspan class="cls-27" x="613.05" y="372">y</tspan><tspan x="647.42" y="372"> </tspan><tspan x="70.63" y="456">fianacia</tspan><tspan class="cls-6" x="336.77" y="456">r</tspan><tspan x="363.72" y="456" xml:space="preserve"> nu</tspan><tspan class="cls-28" x="474.1" y="456">e</tspan><tspan x="513.52" y="456">vos.</tspan><tspan class="cls-29" x="-77.14" y="540">(</tspan><tspan x="-56.21" y="540">e</tspan><tspan class="cls-30" x="-15.82" y="540">n</tspan><tspan class="cls-31" x="27.02" y="540">t</tspan><tspan class="cls-8" x="56.35" y="540">r</tspan><tspan x="83.79" y="540">e los 2018</tspan><tspan class="cls-32" x="426.99" y="540">-</tspan><tspan x="459.89" y="540">20</tspan><tspan class="cls-33" x="544.24" y="540">2</tspan><tspan x="583.65" y="540">7)</tspan></text><text class="cls-1" transform="translate(1986.92 3553.88)"><tspan class="cls-34">S</tspan><tspan x="44.52" y="0">i</tspan><tspan class="cls-35" x="63.14" y="0"> </tspan><tspan x="85.68" y="0">fue</tspan><tspan class="cls-5" x="196.77" y="0">r</tspan><tspan class="cls-36" x="224.35" y="0">a</tspan><tspan class="cls-35" x="262.36" y="0"> </tspan><tspan x="284.9" y="0">finaciado po</tspan><tspan class="cls-36" x="707.06" y="0">r</tspan><tspan x="734.01" y="0" xml:space="preserve"> las </tspan><tspan x="0" y="84">ganacias de las mine</tspan><tspan class="cls-5" x="717" y="84">r</tspan><tspan x="744.58" y="84">as </tspan><tspan x="0" y="168">de un año equi</tspan><tspan class="cls-3" x="513.44" y="168">v</tspan><tspan x="548.93" y="168">aldri</tspan><tspan class="cls-10" x="701.04" y="168">a</tspan><tspan x="739.05" y="168"> </tspan><tspan class="cls-10" x="0" y="252">a</tspan><tspan x="38.01" y="252" xml:space="preserve"> l</tspan><tspan class="cls-36" x="83.3" y="252">a</tspan><tspan x="121.31" y="252" xml:space="preserve"> ma</tspan><tspan class="cls-37" x="251.5" y="252">n</tspan><tspan class="cls-38" x="294.35" y="252">tencion</tspan><tspan class="cls-39" x="550.54" y="252" xml:space="preserve"> y</tspan><tspan x="607.03" y="252"> </tspan><tspan x="0" y="336">construccion de </tspan><tspan x="0" y="420">á</tspan><tspan class="cls-8" x="39.62" y="420">r</tspan><tspan x="67.06" y="420">eas</tspan><tspan class="cls-39" x="183.96" y="420"> </tspan><tspan x="206.08" y="420">ve</tspan><tspan class="cls-8" x="282.87" y="420">r</tspan><tspan x="310.31" y="420">des po</tspan><tspan class="cls-10" x="541.23" y="420">r</tspan><tspan class="cls-11"><tspan x="0" y="540">53 años apor</tspan><tspan class="cls-40" x="631.39" y="540">x</tspan></tspan></text><text class="cls-1" transform="translate(331.79 458.34)">Con un<tspan class="cls-6" x="243.74" y="0">a</tspan><tspan x="281.75" y="0" xml:space="preserve"> i</tspan><tspan class="cls-41" x="324.23" y="0">n</tspan><tspan x="366.65" y="0">ve</tspan><tspan class="cls-16" x="443.44" y="0">r</tspan><tspan x="470.53" y="0">sión de </tspan><tspan class="cls-11"><tspan x="-138.75" y="120">US$</tspan><tspan class="cls-42" x="60.85" y="120"> </tspan><tspan class="cls-43" x="88.65" y="120">15</tspan><tspan class="cls-12" x="190.04" y="120">.</tspan><tspan x="218.44" y="120">6</tspan><tspan class="cls-17" x="280.04" y="120">9</tspan><tspan x="340.84" y="120">3 </tspan><tspan class="cls-21" x="428.74" y="120">millones </tspan></tspan><tspan x="172.97" y="204">se ma</tspan><tspan class="cls-23" x="380.44" y="204">n</tspan><tspan x="423.28" y="204">tiene los </tspan><tspan x="133" y="288">establecimie</tspan><tspan class="cls-23" x="568.46" y="288">n</tspan><tspan x="611.3" y="288">tos </tspan><tspan x="-262.92" y="372">educacionales de enseñanz</tspan><tspan class="cls-6" x="681.51" y="372">a</tspan><tspan x="719.52" y="372"> </tspan><tspan x="-117.32" y="456">basica.</tspan><tspan class="cls-29" x="119.13" y="456">(</tspan><tspan x="140.06" y="456">e</tspan><tspan class="cls-23" x="180.45" y="456">n</tspan><tspan class="cls-44" x="223.29" y="456">t</tspan><tspan class="cls-15" x="252.62" y="456">r</tspan><tspan x="280.06" y="456">e 2018</tspan><tspan class="cls-32" x="499.09" y="456">-</tspan><tspan x="531.99" y="456">20</tspan><tspan class="cls-33" x="616.34" y="456">2</tspan><tspan x="655.75" y="456">7)</tspan></text><text class="cls-1" transform="translate(1986.92 1872.9)"><tspan class="cls-45">S</tspan><tspan x="44.52" y="0">i se destina</tspan><tspan class="cls-5" x="440.22" y="0">r</tspan><tspan class="cls-6" x="467.8" y="0">a</tspan><tspan class="cls-46" x="505.81" y="0"> </tspan><tspan x="528.28" y="0">todo l</tspan><tspan class="cls-6" x="730.79" y="0">a</tspan><tspan x="768.8" y="0"> </tspan><tspan x="0" y="84">pl</tspan><tspan class="cls-33" x="65.31" y="84">a</tspan><tspan x="103.53" y="84">t</tspan><tspan class="cls-10" x="132.86" y="84">a</tspan><tspan x="170.87" y="84"> </tspan><tspan class="cls-15" x="194.74" y="84">r</tspan><tspan x="222.18" y="84">ecaudad</tspan><tspan class="cls-10" x="511.98" y="84">a</tspan><tspan x="549.99" y="84" xml:space="preserve"> po</tspan><tspan class="cls-6" x="659.75" y="84">r</tspan><tspan x="686.7" y="84" xml:space="preserve"> las </tspan><tspan x="0" y="168">mine</tspan><tspan class="cls-5" x="169.05" y="168">r</tspan><tspan x="196.63" y="168">as en un añ</tspan><tspan class="cls-33" x="597.93" y="168">o</tspan><tspan x="638.53" y="168">,</tspan><tspan x="0" y="252">equi</tspan><tspan class="cls-3" x="146.09" y="252">v</tspan><tspan x="181.58" y="252">aldri</tspan><tspan class="cls-10" x="333.69" y="252">a</tspan><tspan x="371.7" y="252"> </tspan><tspan class="cls-6" x="395.57" y="252">a</tspan><tspan x="433.58" y="252"> </tspan><tspan x="0" y="336">l</tspan><tspan class="cls-6" x="21.42" y="336">a</tspan><tspan x="59.43" y="336" xml:space="preserve"> construccion</tspan><tspan class="cls-27" x="528.14" y="336" xml:space="preserve"> y</tspan><tspan x="584.63" y="336"> </tspan><tspan x="0" y="420">ma</tspan><tspan class="cls-23" x="106.33" y="420">n</tspan><tspan x="149.17" y="420">tencion de los</tspan><tspan x="0" y="504">hospitales po</tspan><tspan class="cls-6" x="462.14" y="504">r</tspan><tspan x="489.08" y="504"> </tspan><tspan class="cls-11"><tspan x="0" y="624">28 años apor</tspan><tspan class="cls-14" x="636.09" y="624">x</tspan><tspan x="695.69" y="624">.</tspan></tspan></text><text class="cls-1" transform="translate(234.21 3531.01)">Se estim<tspan class="cls-10" x="301.06" y="0">a</tspan><tspan x="339.07" y="0" xml:space="preserve"> un</tspan><tspan class="cls-36" x="449.46" y="0">a</tspan><tspan x="487.47" y="0" xml:space="preserve"> i</tspan><tspan class="cls-47" x="529.96" y="0">n</tspan><tspan x="572.38" y="0">ve</tspan><tspan class="cls-16" x="649.17" y="0">r</tspan><tspan x="676.26" y="0">sión </tspan><tspan x="290.15" y="120">de </tspan><tspan class="cls-48" x="398.3" y="120">US$ 640</tspan><tspan x="817.1" y="120"> </tspan><tspan x="55.3" y="204">millones pa</tspan><tspan class="cls-5" x="453.45" y="204">r</tspan><tspan class="cls-10" x="481.03" y="204">a</tspan><tspan x="519.04" y="204" xml:space="preserve"> supli</tspan><tspan class="cls-36" x="706.92" y="204">r</tspan><tspan x="733.87" y="204" xml:space="preserve"> e</tspan><tspan class="cls-7" x="798.13" y="204">l</tspan><tspan x="817.1" y="204"> </tspan><tspan x="36.4" y="288">d</tspan><tspan class="cls-34" x="80.29" y="288">é</tspan><tspan x="120.33" y="288">ficit de á</tspan><tspan class="cls-8" x="425.24" y="288">r</tspan><tspan x="452.68" y="288">eas</tspan><tspan class="cls-49" x="569.58" y="288"> </tspan><tspan x="591.7" y="288">ve</tspan><tspan class="cls-50" x="668.49" y="288">r</tspan><tspan x="695.93" y="288">des </tspan><tspan class="cls-39" x="-55.86" y="372">y</tspan><tspan x="-21.49" y="372" xml:space="preserve"> espacios públicos e</tspan><tspan class="cls-37" x="677.1" y="372">n</tspan><tspan class="cls-38" x="719.94" y="372">t</tspan><tspan class="cls-8" x="749.27" y="372">r</tspan><tspan x="776.71" y="372">e</tspan><tspan x="73.29" y="456" xml:space="preserve"> los años 2018</tspan><tspan class="cls-39" x="561.81" y="456" xml:space="preserve"> y</tspan><tspan x="618.3" y="456" xml:space="preserve"> 20</tspan><tspan class="cls-33" x="726.52" y="456">2</tspan><tspan class="cls-51" x="765.93" y="456">7</tspan><tspan x="798.48" y="456">.</tspan></text><text class="cls-52" transform="translate(1101.5 124.5)"><tspan class="cls-53">E</tspan><tspan x="93.45" y="0">duc</tspan><tspan class="cls-54" x="365.4" y="0">a</tspan><tspan x="451.65" y="0">ción</tspan></text><text class="cls-52" transform="translate(1295.06 1527.62)"><tspan class="cls-54">S</tspan><tspan x="96.15" y="0">alud</tspan></text><text class="cls-52" transform="translate(844.56 3238.75)">Es<tspan class="cls-55" x="174.6" y="0">p</tspan><tspan class="cls-54" x="267.9" y="0">a</tspan><tspan x="354.15" y="0">cios Públicos</tspan></text></svg>